<svg xmlns="http://www.w3.org/2000/svg" width="142" height="109" viewBox="0 0 142 109"><g id="dots" transform="translate(-131 -963)"><circle id="Ellipse_2" cx="5" cy="5" r="5" fill="#fff" data-name="Ellipse 2" transform="translate(131 963)"/><circle id="Ellipse_2-2" cx="5" cy="5" r="5" fill="#fff" data-name="Ellipse 2" transform="translate(164 963)"/><circle id="Ellipse_2-3" cx="5" cy="5" r="5" fill="#fff" data-name="Ellipse 2" transform="translate(197 963)"/><circle id="Ellipse_2-4" cx="5" cy="5" r="5" fill="#fff" data-name="Ellipse 2" transform="translate(230 963)"/><circle id="Ellipse_2-5" cx="5" cy="5" r="5" fill="#fff" data-name="Ellipse 2" transform="translate(263 963)"/><circle id="Ellipse_2-6" cx="5" cy="5" r="5" fill="#fff" data-name="Ellipse 2" transform="translate(131 996)"/><circle id="Ellipse_2-7" cx="5" cy="5" r="5" fill="#fff" data-name="Ellipse 2" transform="translate(164 996)"/><circle id="Ellipse_2-8" cx="5" cy="5" r="5" fill="#fff" data-name="Ellipse 2" transform="translate(197 996)"/><circle id="Ellipse_2-9" cx="5" cy="5" r="5" fill="#fff" data-name="Ellipse 2" transform="translate(230 996)"/><circle id="Ellipse_2-10" cx="5" cy="5" r="5" fill="#fff" data-name="Ellipse 2" transform="translate(263 996)"/><circle id="Ellipse_2-11" cx="5" cy="5" r="5" fill="#fff" data-name="Ellipse 2" transform="translate(131 1029)"/><circle id="Ellipse_2-12" cx="5" cy="5" r="5" fill="#fff" data-name="Ellipse 2" transform="translate(164 1029)"/><circle id="Ellipse_2-13" cx="5" cy="5" r="5" fill="#fff" data-name="Ellipse 2" transform="translate(197 1029)"/><circle id="Ellipse_2-14" cx="5" cy="5" r="5" fill="#fff" data-name="Ellipse 2" transform="translate(230 1029)"/><circle id="Ellipse_2-15" cx="5" cy="5" r="5" fill="#fff" data-name="Ellipse 2" transform="translate(263 1029)"/><circle id="Ellipse_2-16" cx="5" cy="5" r="5" fill="#fff" data-name="Ellipse 2" transform="translate(131 1062)"/><circle id="Ellipse_2-17" cx="5" cy="5" r="5" fill="#fff" data-name="Ellipse 2" transform="translate(164 1062)"/><circle id="Ellipse_2-18" cx="5" cy="5" r="5" fill="#fff" data-name="Ellipse 2" transform="translate(197 1062)"/><circle id="Ellipse_2-19" cx="5" cy="5" r="5" fill="#fff" data-name="Ellipse 2" transform="translate(230 1062)"/><circle id="Ellipse_2-20" cx="5" cy="5" r="5" fill="#fff" data-name="Ellipse 2" transform="translate(263 1062)"/></g></svg>