<svg xmlns="http://www.w3.org/2000/svg" xmlns:xlink="http://www.w3.org/1999/xlink" width="411" height="402" viewBox="0 0 411 402"><defs><filter id="Rectangle_6" width="409" height="402" x="2" y="0" filterUnits="userSpaceOnUse"><feOffset dy="9" input="SourceAlpha"/><feGaussianBlur result="blur" stdDeviation="9"/><feFlood flood-opacity=".09"/><feComposite in2="blur" operator="in"/><feComposite in="SourceGraphic"/></filter></defs><g id="illustration" transform="translate(-1100 -312)"><g filter="url(#Rectangle_6)" transform="matrix(1, 0, 0, 1, 1100, 312)"><rect id="Rectangle_6-2" width="355" height="348" fill="#fff" data-name="Rectangle 6" rx="31" transform="translate(29 18)"/></g><g id="Component_4_1" data-name="Component 4 – 1" transform="translate(1100 395)"><g id="Group_6" data-name="Group 6" transform="translate(-1119 -230)"><g id="Ellipse_1" fill="#fff" stroke="#d5d5d5" stroke-width="4" data-name="Ellipse 1" transform="translate(1119 386)"><circle cx="29" cy="29" r="29" stroke="none"/><circle cx="29" cy="29" r="27" fill="none"/></g><path id="Path_1" fill="none" stroke="#fff" stroke-width="6" d="M1132.312,416.46l7.333,7.333,9.648-9.648,4.718-4.718" data-name="Path 1" transform="translate(4.839 -1.611)"/><rect id="Rectangle_7" width="235" height="13" fill="#b2ddcc" data-name="Rectangle 7" rx="6.5" transform="translate(1221 393)"/><rect id="Rectangle_8" width="56" height="13" fill="#b2ddcc" data-name="Rectangle 8" rx="6.5" transform="translate(1221 417)"/><rect id="Rectangle_9" width="13" height="13" fill="#b2ddcc" data-name="Rectangle 9" rx="6.5" transform="translate(1443 417)"/><rect id="Rectangle_10" width="13" height="13" fill="#b2ddcc" data-name="Rectangle 10" rx="6.5" transform="translate(1425 417)"/></g><g id="Group_5" data-name="Group 5" transform="translate(-1119 -308)"><g id="Ellipse_1-2" fill="#fff" stroke="#d5d5d5" stroke-width="4" data-name="Ellipse 1" transform="translate(1119 386)"><circle cx="29" cy="29" r="29" stroke="none"/><circle cx="29" cy="29" r="27" fill="none"/></g><path id="Path_1-2" fill="none" stroke="#fff" stroke-width="6" d="M1132.312,416.46l7.333,7.333,9.648-9.648,4.718-4.718" data-name="Path 1" transform="translate(4.839 -1.611)"/><rect id="Rectangle_7-2" width="235" height="13" fill="#f9d5a5" data-name="Rectangle 7" rx="6.5" transform="translate(1221 393)"/><rect id="Rectangle_8-2" width="56" height="13" fill="#f9d5a5" data-name="Rectangle 8" rx="6.5" transform="translate(1221 417)"/><rect id="Rectangle_9-2" width="13" height="13" fill="#f9d5a5" data-name="Rectangle 9" rx="6.5" transform="translate(1443 417)"/><rect id="Rectangle_10-2" width="13" height="13" fill="#f9d5a5" data-name="Rectangle 10" rx="6.5" transform="translate(1425 417)"/></g><g id="Group_4" data-name="Group 4" transform="translate(-1119 -386)"><circle id="Ellipse_1-3" cx="29" cy="29" r="29" fill="#1fc41f" data-name="Ellipse 1" transform="translate(1119 386)"/><path id="Path_1-3" fill="none" stroke="#fff" stroke-width="6" d="M1132.312,416.46l7.333,7.333,9.648-9.648,4.718-4.718" data-name="Path 1" transform="translate(4.839 -1.611)"/><rect id="Rectangle_7-3" width="235" height="13" fill="#e9d5f5" data-name="Rectangle 7" rx="6.5" transform="translate(1221 393)"/><rect id="Rectangle_8-3" width="56" height="13" fill="#e9d5f5" data-name="Rectangle 8" rx="6.5" transform="translate(1221 417)"/><rect id="Rectangle_9-3" width="13" height="13" fill="#e9d5f5" data-name="Rectangle 9" rx="6.5" transform="translate(1443 417)"/><rect id="Rectangle_10-3" width="13" height="13" fill="#e9d5f5" data-name="Rectangle 10" rx="6.5" transform="translate(1425 417)"/></g></g></g></svg>